<?xml version="1.0" encoding="utf-8"?><!DOCTYPE svg PUBLIC "-//W3C//DTD SVG 1.1//EN" "http://www.w3.org/Graphics/SVG/1.1/DTD/svg11.dtd"><svg xmlns="http://www.w3.org/2000/svg" xmlns:xlink="http://www.w3.org/1999/xlink"><symbol viewBox="0 0 15 12" id="cart" xmlns="http://www.w3.org/2000/svg"><path fill="none" d="M11.539 10.91c0 .301.113.558.338.771.225.214.497.319.816.319.318 0 .59-.106.815-.319.226-.213.338-.47.338-.771s-.113-.558-.338-.771a1.144 1.144 0 0 0-.815-.32c-.319 0-.591.107-.816.32a1.019 1.019 0 0 0-.338.771z"/><path fill="none" d="M14.829 1.251a.57.57 0 0 0-.405-.162H3.596a6.114 6.114 0 0 0-.041-.218c-.021-.105-.038-.188-.049-.25a1.31 1.31 0 0 0-.068-.227.617.617 0 0 0-.117-.208.574.574 0 0 0-.437-.188H.577a.573.573 0 0 0-.406.161.515.515 0 0 0 0 .768c.114.108.25.162.406.162h1.839l1.595 7.016c-.012.022-.073.13-.185.324s-.2.363-.266.507a.895.895 0 0 0-.099.337c0 .148.057.276.171.384.114.107.25.162.406.162h9.232a.567.567 0 0 0 .405-.162c.114-.108.171-.236.171-.384s-.057-.276-.171-.384a.575.575 0 0 0-.405-.162H4.976c.144-.272.216-.455.216-.545a.87.87 0 0 0-.022-.188 13.717 13.717 0 0 0-.055-.226 1.994 1.994 0 0 1-.04-.183l9.412-1.04a.57.57 0 0 0 .369-.183.52.52 0 0 0 .144-.363V1.634a.511.511 0 0 0-.171-.383z"/><path fill="none" d="M3.461 10.91c0 .301.113.558.338.771s.497.319.816.319c.318 0 .59-.106.815-.319.226-.213.338-.47.338-.771s-.113-.558-.338-.771a1.144 1.144 0 0 0-.815-.32c-.319 0-.591.107-.816.32a1.022 1.022 0 0 0-.338.771z"/></symbol><symbol viewBox="0 0 16 16" id="search" xmlns="http://www.w3.org/2000/svg"><path fill="none" d="M15.645 13.903l-3.298-3.298a6.582 6.582 0 0 0 1.192-3.837c0-.916-.178-1.793-.534-2.63a6.795 6.795 0 0 0-1.442-2.164C10.957 1.369 10.236.888 9.399.532s-1.713-.534-2.63-.534c-.917 0-1.793.178-2.63.534s-1.557.837-2.163 1.443A6.776 6.776 0 0 0 .533 4.138 6.652 6.652 0 0 0 0 6.768c0 .917.178 1.794.534 2.63.355.836.836 1.557 1.442 2.163s1.327 1.087 2.164 1.443a6.65 6.65 0 0 0 2.63.534 6.584 6.584 0 0 0 3.837-1.192l3.298 3.289c.231.244.519.365.865.365.333 0 .622-.121.865-.365.244-.244.365-.533.365-.866 0-.34-.118-.628-.355-.866zM9.813 9.812c-.843.843-1.857 1.265-3.043 1.265s-2.2-.421-3.043-1.265c-.844-.844-1.266-1.857-1.266-3.044 0-1.186.421-2.2 1.264-3.043S5.583 2.46 6.769 2.46s2.201.422 3.044 1.265 1.265 1.857 1.265 3.043c0 1.187-.422 2.2-1.265 3.044z"/></symbol></svg>