<svg xmlns="http://www.w3.org/2000/svg" width="35" height="53" viewBox="0 0 35 53">
  <path fill="#1e2633" d="M29.872,5.172A16.775,16.775,0,0,0,17.5,0,16.777,16.777,0,0,0,5.128,5.172,17.108,17.108,0,0,0,0,17.665,14.649,14.649,0,0,0,1.13,23.843L13.6,50.554a3.962,3.962,0,0,0,1.589,1.794,4.385,4.385,0,0,0,4.614,0,4.172,4.172,0,0,0,1.623-1.794L33.87,23.843A14.643,14.643,0,0,0,35,17.665,17.106,17.106,0,0,0,29.872,5.172ZM23.686,23.912A8.389,8.389,0,0,1,17.5,26.5a8.39,8.39,0,0,1-6.186-2.588,8.554,8.554,0,0,1-2.563-6.246,8.552,8.552,0,0,1,2.563-6.246A8.389,8.389,0,0,1,17.5,8.831a8.387,8.387,0,0,1,6.186,2.588,8.552,8.552,0,0,1,2.564,6.246A8.555,8.555,0,0,1,23.686,23.912Z"/>
</svg>
