<svg xmlns="http://www.w3.org/2000/svg" xmlns:xlink="http://www.w3.org/1999/xlink" width="60" height="24" viewBox="0 0 60 24">
  <path fill="#dcdee0" d="M12,4.65A0.382,0.382,0,0,0,11.6,4.3L7.976,3.75,6.353,0.311A0.415,0.415,0,0,0,6,0a0.415,0.415,0,0,0-.353.31L4.024,3.75,0.4,4.3A0.382,0.382,0,0,0,0,4.65a0.587,0.587,0,0,0,.18.363L2.805,7.69l-0.62,3.78a1.282,1.282,0,0,0-.014.151,0.46,0.46,0,0,0,.076.268,0.257,0.257,0,0,0,.227.11,0.588,0.588,0,0,0,.288-0.091L6,10.124l3.238,1.784A0.563,0.563,0,0,0,9.527,12a0.25,0.25,0,0,0,.22-0.11,0.461,0.461,0,0,0,.076-0.268,1.2,1.2,0,0,0-.007-0.151L9.195,7.69l2.618-2.676A0.556,0.556,0,0,0,12,4.65Z"/>
  <path fill="#dcdee0" d="M24,4.65A0.382,0.382,0,0,0,23.6,4.3l-3.62-.552-1.623-3.44a0.356,0.356,0,0,0-.707,0L16.024,3.75,12.4,4.3a0.382,0.382,0,0,0-.4.348,0.587,0.587,0,0,0,.18.363L14.805,7.69l-0.62,3.78a1.29,1.29,0,0,0-.014.151,0.459,0.459,0,0,0,.076.268,0.257,0.257,0,0,0,.227.11,0.588,0.588,0,0,0,.288-0.091L18,10.124l3.238,1.784a0.563,0.563,0,0,0,.288.091,0.25,0.25,0,0,0,.22-0.11,0.461,0.461,0,0,0,.076-0.268,1.179,1.179,0,0,0-.007-0.151l-0.62-3.78,2.618-2.676A0.556,0.556,0,0,0,24,4.65Z"/>
  <path fill="#dcdee0" d="M36,4.65A0.382,0.382,0,0,0,35.6,4.3l-3.62-.552-1.623-3.44a0.356,0.356,0,0,0-.707,0L28.024,3.75,24.4,4.3a0.382,0.382,0,0,0-.4.348,0.587,0.587,0,0,0,.18.363L26.805,7.69l-0.62,3.78a1.268,1.268,0,0,0-.014.151,0.46,0.46,0,0,0,.076.268,0.257,0.257,0,0,0,.227.11,0.589,0.589,0,0,0,.288-0.091L30,10.124l3.238,1.784a0.563,0.563,0,0,0,.288.091,0.25,0.25,0,0,0,.22-0.11,0.461,0.461,0,0,0,.076-0.268,1.2,1.2,0,0,0-.007-0.151l-0.62-3.78,2.618-2.676A0.555,0.555,0,0,0,36,4.65Z"/>
  <path fill="#dcdee0" d="M48,4.65A0.382,0.382,0,0,0,47.6,4.3l-3.62-.552-1.623-3.44a0.356,0.356,0,0,0-.707,0L40.024,3.75,36.4,4.3a0.382,0.382,0,0,0-.4.348,0.587,0.587,0,0,0,.18.363L38.805,7.69l-0.62,3.78a1.29,1.29,0,0,0-.014.151,0.46,0.46,0,0,0,.076.268,0.257,0.257,0,0,0,.227.11,0.588,0.588,0,0,0,.288-0.091L42,10.124l3.238,1.784a0.563,0.563,0,0,0,.288.091,0.25,0.25,0,0,0,.22-0.11,0.461,0.461,0,0,0,.076-0.268,1.158,1.158,0,0,0-.007-0.151l-0.62-3.78,2.618-2.676A0.556,0.556,0,0,0,48,4.65Z"/>
  <path fill="#dcdee0" d="M60,4.65A0.382,0.382,0,0,0,59.6,4.3l-3.62-.552-1.623-3.44a0.356,0.356,0,0,0-.707,0L52.024,3.75,48.4,4.3a0.382,0.382,0,0,0-.4.348,0.587,0.587,0,0,0,.18.363L50.805,7.69l-0.62,3.78a1.29,1.29,0,0,0-.014.151,0.46,0.46,0,0,0,.076.268,0.257,0.257,0,0,0,.227.11,0.588,0.588,0,0,0,.288-0.091L54,10.124l3.238,1.784a0.563,0.563,0,0,0,.288.091,0.25,0.25,0,0,0,.22-0.11,0.461,0.461,0,0,0,.076-0.268,1.179,1.179,0,0,0-.007-0.151l-0.62-3.78,2.618-2.676A0.556,0.556,0,0,0,60,4.65Z"/>
  <path fill="#985e5b" d="M12,16.65a0.382,0.382,0,0,0-.4-0.348l-3.62-.552-1.623-3.44A0.415,0.415,0,0,0,6,12a0.415,0.415,0,0,0-.353.31l-1.623,3.44L0.4,16.3a0.382,0.382,0,0,0-.4.348,0.587,0.587,0,0,0,.18.363L2.805,19.69l-0.62,3.78a1.282,1.282,0,0,0-.014.151,0.46,0.46,0,0,0,.076.268,0.257,0.257,0,0,0,.227.11,0.588,0.588,0,0,0,.288-0.091L6,22.124l3.238,1.784A0.563,0.563,0,0,0,9.527,24a0.25,0.25,0,0,0,.22-0.11,0.461,0.461,0,0,0,.076-0.268,1.2,1.2,0,0,0-.007-0.151l-0.62-3.78,2.618-2.676A0.555,0.555,0,0,0,12,16.65Z"/>
  <path fill="#985e5b" d="M24,16.65a0.382,0.382,0,0,0-.4-0.348l-3.62-.552-1.623-3.44a0.356,0.356,0,0,0-.707,0l-1.623,3.44L12.4,16.3a0.382,0.382,0,0,0-.4.348,0.587,0.587,0,0,0,.18.363l2.625,2.676-0.62,3.78a1.29,1.29,0,0,0-.014.151,0.459,0.459,0,0,0,.076.268,0.257,0.257,0,0,0,.227.11,0.588,0.588,0,0,0,.288-0.091L18,22.124l3.238,1.784a0.563,0.563,0,0,0,.288.091,0.25,0.25,0,0,0,.22-0.11,0.461,0.461,0,0,0,.076-0.268,1.179,1.179,0,0,0-.007-0.151l-0.62-3.78,2.618-2.676A0.556,0.556,0,0,0,24,16.65Z"/>
  <path fill="#985e5b" d="M36,16.65a0.382,0.382,0,0,0-.4-0.348l-3.62-.552-1.623-3.44a0.356,0.356,0,0,0-.707,0l-1.623,3.44L24.4,16.3a0.382,0.382,0,0,0-.4.348,0.587,0.587,0,0,0,.18.363l2.625,2.676-0.62,3.78a1.268,1.268,0,0,0-.014.151,0.46,0.46,0,0,0,.076.268,0.257,0.257,0,0,0,.227.11,0.589,0.589,0,0,0,.288-0.091L30,22.124l3.238,1.784a0.563,0.563,0,0,0,.288.091,0.25,0.25,0,0,0,.22-0.11,0.461,0.461,0,0,0,.076-0.268,1.2,1.2,0,0,0-.007-0.151l-0.62-3.78,2.618-2.676A0.555,0.555,0,0,0,36,16.65Z"/>
  <path fill="#985e5b" d="M48,16.65a0.382,0.382,0,0,0-.4-0.348l-3.62-.552-1.623-3.44a0.356,0.356,0,0,0-.707,0l-1.623,3.44L36.4,16.3a0.382,0.382,0,0,0-.4.348,0.587,0.587,0,0,0,.18.363l2.625,2.676-0.62,3.78a1.29,1.29,0,0,0-.014.151,0.46,0.46,0,0,0,.076.268,0.257,0.257,0,0,0,.227.11,0.588,0.588,0,0,0,.288-0.091L42,22.124l3.238,1.784a0.563,0.563,0,0,0,.288.091,0.25,0.25,0,0,0,.22-0.11,0.461,0.461,0,0,0,.076-0.268,1.158,1.158,0,0,0-.007-0.151l-0.62-3.78,2.618-2.676A0.556,0.556,0,0,0,48,16.65Z"/>
  <path fill="#985e5b" d="M60,16.65a0.382,0.382,0,0,0-.4-0.348l-3.62-.552-1.623-3.44a0.356,0.356,0,0,0-.707,0l-1.623,3.44L48.4,16.3a0.382,0.382,0,0,0-.4.348,0.587,0.587,0,0,0,.18.363l2.625,2.676-0.62,3.78a1.29,1.29,0,0,0-.014.151,0.46,0.46,0,0,0,.076.268,0.257,0.257,0,0,0,.227.11,0.588,0.588,0,0,0,.288-0.091L54,22.124l3.238,1.784a0.563,0.563,0,0,0,.288.091,0.25,0.25,0,0,0,.22-0.11,0.461,0.461,0,0,0,.076-0.268,1.179,1.179,0,0,0-.007-0.151l-0.62-3.78,2.618-2.676A0.556,0.556,0,0,0,60,16.65Z"/>
</svg>
